<svg xmlns="http://www.w3.org/2000/svg" style="display:none">
  <symbol id="arrow-clockwise" viewBox="0 0 256 256">
    <polyline points="184 104 232 104 232 56" fill="none" stroke="currentColor" stroke-linecap="round" stroke-linejoin="round" stroke-width="16"/><path d="M188.4,192a88,88,0,1,1,1.83-126.23L232,104" fill="none" stroke="currentColor" stroke-linecap="round" stroke-linejoin="round" stroke-width="16"/>
  </symbol>
  <symbol id="arrow-counter-clockwise" viewBox="0 0 256 256">
    <polyline points="24 56 24 104 72 104" fill="none" stroke="currentColor" stroke-linecap="round" stroke-linejoin="round" stroke-width="16"/><path d="M67.59,192A88,88,0,1,0,65.77,65.77L24,104" fill="none" stroke="currentColor" stroke-linecap="round" stroke-linejoin="round" stroke-width="16"/>
  </symbol>
  <symbol id="arrow-left" viewBox="0 0 256 256">
    <line x1="216" y1="128" x2="40" y2="128" fill="none" stroke="currentColor" stroke-linecap="round" stroke-linejoin="round" stroke-width="16"/><polyline points="112 56 40 128 112 200" fill="none" stroke="currentColor" stroke-linecap="round" stroke-linejoin="round" stroke-width="16"/>
  </symbol>
  <symbol id="arrow-right" viewBox="0 0 256 256">
    <line x1="40" y1="128" x2="216" y2="128" fill="none" stroke="currentColor" stroke-linecap="round" stroke-linejoin="round" stroke-width="16"/><polyline points="144 56 216 128 144 200" fill="none" stroke="currentColor" stroke-linecap="round" stroke-linejoin="round" stroke-width="16"/>
  </symbol>
  <symbol id="bookmark-simple" viewBox="0 0 256 256">
    <path d="M192,224l-64-40L64,224V48a8,8,0,0,1,8-8H184a8,8,0,0,1,8,8Z" fill="none" stroke="currentColor" stroke-linecap="round" stroke-linejoin="round" stroke-width="16"/>
  </symbol>
  <symbol id="caret-down" viewBox="0 0 256 256">
    <polyline points="208 96 128 176 48 96" fill="none" stroke="currentColor" stroke-linecap="round" stroke-linejoin="round" stroke-width="16"/>
  </symbol>
  <symbol id="caret-up" viewBox="0 0 256 256">
    <polyline points="48 160 128 80 208 160" fill="none" stroke="currentColor" stroke-linecap="round" stroke-linejoin="round" stroke-width="16"/>
  </symbol>
  <symbol id="check-circle" viewBox="0 0 256 256">
    <polyline points="88 136 112 160 168 104" fill="none" stroke="currentColor" stroke-linecap="round" stroke-linejoin="round" stroke-width="16"/><circle cx="128" cy="128" r="96" fill="none" stroke="currentColor" stroke-linecap="round" stroke-linejoin="round" stroke-width="16"/>
  </symbol>
  <symbol id="clock" viewBox="0 0 256 256">
    <circle cx="128" cy="128" r="96" fill="none" stroke="currentColor" stroke-linecap="round" stroke-linejoin="round" stroke-width="16"/><polyline points="128 72 128 128 184 128" fill="none" stroke="currentColor" stroke-linecap="round" stroke-linejoin="round" stroke-width="16"/>
  </symbol>
  <symbol id="clock-counter-clockwise" viewBox="0 0 256 256">
    <polyline points="128 80 128 128 168 152" fill="none" stroke="currentColor" stroke-linecap="round" stroke-linejoin="round" stroke-width="16"/><polyline points="72 104 32 104 32 64" fill="none" stroke="currentColor" stroke-linecap="round" stroke-linejoin="round" stroke-width="16"/><path d="M67.6,192A88,88,0,1,0,65.77,65.77C54,77.69,44.28,88.93,32,104" fill="none" stroke="currentColor" stroke-linecap="round" stroke-linejoin="round" stroke-width="16"/>
  </symbol>
  <symbol id="envelope-simple" viewBox="0 0 256 256">
    <path d="M32,56H224a0,0,0,0,1,0,0V192a8,8,0,0,1-8,8H40a8,8,0,0,1-8-8V56A0,0,0,0,1,32,56Z" fill="none" stroke="currentColor" stroke-linecap="round" stroke-linejoin="round" stroke-width="16"/><polyline points="224 56 128 144 32 56" fill="none" stroke="currentColor" stroke-linecap="round" stroke-linejoin="round" stroke-width="16"/>
  </symbol>
  <symbol id="eye" viewBox="0 0 256 256">
    <path d="M128,56C48,56,16,128,16,128s32,72,112,72,112-72,112-72S208,56,128,56Z" fill="none" stroke="currentColor" stroke-linecap="round" stroke-linejoin="round" stroke-width="16"/><circle cx="128" cy="128" r="40" fill="none" stroke="currentColor" stroke-linecap="round" stroke-linejoin="round" stroke-width="16"/>
  </symbol>
  <symbol id="file-text" viewBox="0 0 256 256">
    <path d="M200,224H56a8,8,0,0,1-8-8V40a8,8,0,0,1,8-8h96l56,56V216A8,8,0,0,1,200,224Z" fill="none" stroke="currentColor" stroke-linecap="round" stroke-linejoin="round" stroke-width="16"/><polyline points="152 32 152 88 208 88" fill="none" stroke="currentColor" stroke-linecap="round" stroke-linejoin="round" stroke-width="16"/><line x1="96" y1="136" x2="160" y2="136" fill="none" stroke="currentColor" stroke-linecap="round" stroke-linejoin="round" stroke-width="16"/><line x1="96" y1="168" x2="160" y2="168" fill="none" stroke="currentColor" stroke-linecap="round" stroke-linejoin="round" stroke-width="16"/>
  </symbol>
  <symbol id="google-logo" viewBox="0 0 256 256">
    <path d="M128,128h88a88,88,0,1,1-20.11-56" fill="none" stroke="currentColor" stroke-linecap="round" stroke-linejoin="round" stroke-width="16"/>
  </symbol>
  <symbol id="heart" viewBox="0 0 256 256">
    <path d="M128,224S24,168,24,102A54,54,0,0,1,78,48c22.59,0,41.94,12.31,50,32,8.06-19.69,27.41-32,50-32a54,54,0,0,1,54,54C232,168,128,224,128,224Z" fill="none" stroke="currentColor" stroke-linecap="round" stroke-linejoin="round" stroke-width="16"/>
  </symbol>
  <symbol id="house" viewBox="0 0 256 256">
    <path d="M104,216V152h48v64h64V120a8,8,0,0,0-2.34-5.66l-80-80a8,8,0,0,0-11.32,0l-80,80A8,8,0,0,0,40,120v96Z" fill="none" stroke="currentColor" stroke-linecap="round" stroke-linejoin="round" stroke-width="16"/>
  </symbol>
  <symbol id="image-square" viewBox="0 0 256 256">
    <rect x="40" y="40" width="176" height="176" rx="8" fill="none" stroke="currentColor" stroke-linecap="round" stroke-linejoin="round" stroke-width="16"/><circle cx="96" cy="96" r="16" fill="none" stroke="currentColor" stroke-linecap="round" stroke-linejoin="round" stroke-width="16"/><path d="M56.69,216,166.34,106.34a8,8,0,0,1,11.32,0L216,144.69" fill="none" stroke="currentColor" stroke-linecap="round" stroke-linejoin="round" stroke-width="16"/>
  </symbol>
  <symbol id="link-simple" viewBox="0 0 256 256">
    <line x1="96" y1="160" x2="160" y2="96" fill="none" stroke="currentColor" stroke-linecap="round" stroke-linejoin="round" stroke-width="16"/><path d="M112,76.11l30.06-30a48,48,0,0,1,67.88,67.88L179.88,144" fill="none" stroke="currentColor" stroke-linecap="round" stroke-linejoin="round" stroke-width="16"/><path d="M76.11,112l-30,30.06a48,48,0,0,0,67.88,67.88L144,179.88" fill="none" stroke="currentColor" stroke-linecap="round" stroke-linejoin="round" stroke-width="16"/>
  </symbol>
  <symbol id="list" viewBox="0 0 256 256">
    <line x1="40" y1="128" x2="216" y2="128" fill="none" stroke="currentColor" stroke-linecap="round" stroke-linejoin="round" stroke-width="16"/><line x1="40" y1="64" x2="216" y2="64" fill="none" stroke="currentColor" stroke-linecap="round" stroke-linejoin="round" stroke-width="16"/><line x1="40" y1="192" x2="216" y2="192" fill="none" stroke="currentColor" stroke-linecap="round" stroke-linejoin="round" stroke-width="16"/>
  </symbol>
  <symbol id="lock-simple" viewBox="0 0 256 256">
    <rect x="40" y="88" width="176" height="128" rx="8" fill="none" stroke="currentColor" stroke-linecap="round" stroke-linejoin="round" stroke-width="16"/><path d="M88,88V56a40,40,0,0,1,80,0V88" fill="none" stroke="currentColor" stroke-linecap="round" stroke-linejoin="round" stroke-width="16"/>
  </symbol>
  <symbol id="magnifying-glass" viewBox="0 0 256 256">
    <circle cx="112" cy="112" r="80" fill="none" stroke="currentColor" stroke-linecap="round" stroke-linejoin="round" stroke-width="16"/><line x1="168.57" y1="168.57" x2="224" y2="224" fill="none" stroke="currentColor" stroke-linecap="round" stroke-linejoin="round" stroke-width="16"/>
  </symbol>
  <symbol id="moon" viewBox="0 0 256 256">
    <path d="M108.11,28.11A96.09,96.09,0,0,0,227.89,147.89,96,96,0,1,1,108.11,28.11Z" fill="none" stroke="currentColor" stroke-linecap="round" stroke-linejoin="round" stroke-width="16"/>
  </symbol>
  <symbol id="newspaper-clipping" viewBox="0 0 256 256">
    <path d="M32,216V56a8,8,0,0,1,8-8H216a8,8,0,0,1,8,8V216l-32-16-32,16-32-16L96,216,64,200Z" fill="none" stroke="currentColor" stroke-linecap="round" stroke-linejoin="round" stroke-width="16"/><line x1="144" y1="112" x2="192" y2="112" fill="none" stroke="currentColor" stroke-linecap="round" stroke-linejoin="round" stroke-width="16"/><line x1="144" y1="144" x2="192" y2="144" fill="none" stroke="currentColor" stroke-linecap="round" stroke-linejoin="round" stroke-width="16"/><rect x="64" y="96" width="48" height="64" fill="none" stroke="currentColor" stroke-linecap="round" stroke-linejoin="round" stroke-width="16"/>
  </symbol>
  <symbol id="note-pencil" viewBox="0 0 256 256">
    <polygon points="128 160 96 160 96 128 192 32 224 64 128 160" fill="none" stroke="currentColor" stroke-linecap="round" stroke-linejoin="round" stroke-width="16"/><line x1="168" y1="56" x2="200" y2="88" fill="none" stroke="currentColor" stroke-linecap="round" stroke-linejoin="round" stroke-width="16"/><path d="M216,128v80a8,8,0,0,1-8,8H48a8,8,0,0,1-8-8V48a8,8,0,0,1,8-8h80" fill="none" stroke="currentColor" stroke-linecap="round" stroke-linejoin="round" stroke-width="16"/>
  </symbol>
  <symbol id="quotes" viewBox="0 0 256 256">
    <path d="M108,144H40a8,8,0,0,1-8-8V72a8,8,0,0,1,8-8h60a8,8,0,0,1,8,8v88a40,40,0,0,1-40,40" fill="none" stroke="currentColor" stroke-linecap="round" stroke-linejoin="round" stroke-width="16"/><path d="M224,144H156a8,8,0,0,1-8-8V72a8,8,0,0,1,8-8h60a8,8,0,0,1,8,8v88a40,40,0,0,1-40,40" fill="none" stroke="currentColor" stroke-linecap="round" stroke-linejoin="round" stroke-width="16"/>
  </symbol>
  <symbol id="sign-out" viewBox="0 0 256 256">
    <polyline points="112 40 48 40 48 216 112 216" fill="none" stroke="currentColor" stroke-linecap="round" stroke-linejoin="round" stroke-width="16"/><line x1="112" y1="128" x2="224" y2="128" fill="none" stroke="currentColor" stroke-linecap="round" stroke-linejoin="round" stroke-width="16"/><polyline points="184 88 224 128 184 168" fill="none" stroke="currentColor" stroke-linecap="round" stroke-linejoin="round" stroke-width="16"/>
  </symbol>
  <symbol id="sparkle" viewBox="0 0 256 256">
    <path d="M84.27,171.73l-55.09-20.3a7.92,7.92,0,0,1,0-14.86l55.09-20.3,20.3-55.09a7.92,7.92,0,0,1,14.86,0l20.3,55.09,55.09,20.3a7.92,7.92,0,0,1,0,14.86l-55.09,20.3-20.3,55.09a7.92,7.92,0,0,1-14.86,0Z" fill="none" stroke="currentColor" stroke-linecap="round" stroke-linejoin="round" stroke-width="16"/><line x1="176" y1="16" x2="176" y2="64" fill="none" stroke="currentColor" stroke-linecap="round" stroke-linejoin="round" stroke-width="16"/><line x1="224" y1="72" x2="224" y2="104" fill="none" stroke="currentColor" stroke-linecap="round" stroke-linejoin="round" stroke-width="16"/><line x1="152" y1="40" x2="200" y2="40" fill="none" stroke="currentColor" stroke-linecap="round" stroke-linejoin="round" stroke-width="16"/><line x1="208" y1="88" x2="240" y2="88" fill="none" stroke="currentColor" stroke-linecap="round" stroke-linejoin="round" stroke-width="16"/>
  </symbol>
  <symbol id="squares-four" viewBox="0 0 256 256">
    <rect x="48" y="48" width="64" height="64" rx="8" fill="none" stroke="currentColor" stroke-linecap="round" stroke-linejoin="round" stroke-width="16"/><rect x="144" y="48" width="64" height="64" rx="8" fill="none" stroke="currentColor" stroke-linecap="round" stroke-linejoin="round" stroke-width="16"/><rect x="48" y="144" width="64" height="64" rx="8" fill="none" stroke="currentColor" stroke-linecap="round" stroke-linejoin="round" stroke-width="16"/><rect x="144" y="144" width="64" height="64" rx="8" fill="none" stroke="currentColor" stroke-linecap="round" stroke-linejoin="round" stroke-width="16"/>
  </symbol>
  <symbol id="sun" viewBox="0 0 256 256">
    <line x1="128" y1="40" x2="128" y2="16" fill="none" stroke="currentColor" stroke-linecap="round" stroke-linejoin="round" stroke-width="16"/><circle cx="128" cy="128" r="56" fill="none" stroke="currentColor" stroke-linecap="round" stroke-linejoin="round" stroke-width="16"/><line x1="64" y1="64" x2="48" y2="48" fill="none" stroke="currentColor" stroke-linecap="round" stroke-linejoin="round" stroke-width="16"/><line x1="64" y1="192" x2="48" y2="208" fill="none" stroke="currentColor" stroke-linecap="round" stroke-linejoin="round" stroke-width="16"/><line x1="192" y1="64" x2="208" y2="48" fill="none" stroke="currentColor" stroke-linecap="round" stroke-linejoin="round" stroke-width="16"/><line x1="192" y1="192" x2="208" y2="208" fill="none" stroke="currentColor" stroke-linecap="round" stroke-linejoin="round" stroke-width="16"/><line x1="40" y1="128" x2="16" y2="128" fill="none" stroke="currentColor" stroke-linecap="round" stroke-linejoin="round" stroke-width="16"/><line x1="128" y1="216" x2="128" y2="240" fill="none" stroke="currentColor" stroke-linecap="round" stroke-linejoin="round" stroke-width="16"/><line x1="216" y1="128" x2="240" y2="128" fill="none" stroke="currentColor" stroke-linecap="round" stroke-linejoin="round" stroke-width="16"/>
  </symbol>
  <symbol id="text-b" viewBox="0 0 256 256">
    <path d="M80,120h80a40,40,0,0,1,0,80H80V48h68a36,36,0,0,1,0,72" fill="none" stroke="currentColor" stroke-linecap="round" stroke-linejoin="round" stroke-width="16"/>
  </symbol>
  <symbol id="text-italic" viewBox="0 0 256 256">
    <line x1="152" y1="56" x2="104" y2="200" fill="none" stroke="currentColor" stroke-linecap="round" stroke-linejoin="round" stroke-width="16"/><line x1="64" y1="200" x2="144" y2="200" fill="none" stroke="currentColor" stroke-linecap="round" stroke-linejoin="round" stroke-width="16"/><line x1="112" y1="56" x2="192" y2="56" fill="none" stroke="currentColor" stroke-linecap="round" stroke-linejoin="round" stroke-width="16"/>
  </symbol>
  <symbol id="text-underline" viewBox="0 0 256 256">
    <line x1="64" y1="224" x2="192" y2="224" fill="none" stroke="currentColor" stroke-linecap="round" stroke-linejoin="round" stroke-width="16"/><path d="M184,56v80a56,56,0,0,1-112,0V56" fill="none" stroke="currentColor" stroke-linecap="round" stroke-linejoin="round" stroke-width="16"/>
  </symbol>
  <symbol id="user-circle" viewBox="0 0 256 256">
    <circle cx="128" cy="128" r="96" fill="none" stroke="currentColor" stroke-linecap="round" stroke-linejoin="round" stroke-width="16"/><circle cx="128" cy="120" r="40" fill="none" stroke="currentColor" stroke-linecap="round" stroke-linejoin="round" stroke-width="16"/><path d="M63.8,199.37a72,72,0,0,1,128.4,0" fill="none" stroke="currentColor" stroke-linecap="round" stroke-linejoin="round" stroke-width="16"/>
  </symbol>
  <symbol id="warning-circle" viewBox="0 0 256 256">
    <circle cx="128" cy="128" r="96" fill="none" stroke="currentColor" stroke-miterlimit="10" stroke-width="16"/><line x1="128" y1="136" x2="128" y2="80" fill="none" stroke="currentColor" stroke-linecap="round" stroke-linejoin="round" stroke-width="16"/><circle cx="128" cy="172" r="12"/>
  </symbol>
  <symbol id="x" viewBox="0 0 256 256">
    <line x1="200" y1="56" x2="56" y2="200" stroke="currentColor" stroke-linecap="round" stroke-linejoin="round" stroke-width="16"/><line x1="200" y1="200" x2="56" y2="56" stroke="currentColor" stroke-linecap="round" stroke-linejoin="round" stroke-width="16"/>
  </symbol>
</svg>
